<svg width="192" height="83" viewBox="0 0 192 83" fill="none" xmlns="http://www.w3.org/2000/svg">
<rect width="191.53" height="82.49" fill="white"/>
<path d="M47.53 10H10V20.49H47.53V10Z" fill="#FF4632"/>
<path d="M47.53 20.3999H10V30.8899H47.53V20.3999Z" fill="#FF9900"/>
<path d="M47.53 30.8H10V41.2901H47.53V30.8Z" fill="#FFE246"/>
<path d="M47.53 41.2H10V51.6899H47.53V41.2Z" fill="#8CC529"/>
<path d="M47.53 51.6001H10V62.0901H47.53V51.6001Z" fill="#0093D4"/>
<path d="M47.53 62H10V72.49H47.53V62Z" fill="#8420FF"/>
<path d="M60.1556 40.7451V15.0896H71.8839C74.2295 15.0896 76.2453 15.4684 77.9312 16.2258C79.6416 16.9833 80.961 18.0828 81.8895 19.5244C82.818 20.9415 83.2822 22.6275 83.2822 24.5822C83.2822 26.5124 82.818 28.1862 81.8895 29.6033C80.961 31.0205 79.6416 32.12 77.9312 32.9019C76.2453 33.6593 74.2295 34.038 71.8839 34.038H64.1872L67.4125 30.8861V40.7451H60.1556ZM67.4125 31.6557L64.1872 28.3205H71.444C72.9589 28.3205 74.0829 27.9907 74.8159 27.331C75.5734 26.6713 75.9521 25.755 75.9521 24.5822C75.9521 23.3849 75.5734 22.4564 74.8159 21.7967C74.0829 21.137 72.9589 20.8071 71.444 20.8071H64.1872L67.4125 17.4719V31.6557ZM86.8204 40.7451V15.0896H98.5487C100.894 15.0896 102.91 15.4684 104.596 16.2258C106.306 16.9833 107.626 18.0828 108.554 19.5244C109.483 20.9415 109.947 22.6275 109.947 24.5822C109.947 26.5124 109.483 28.1862 108.554 29.6033C107.626 30.996 106.306 32.0711 104.596 32.8286C102.91 33.5616 100.894 33.9281 98.5487 33.9281H90.852L94.0773 30.8861V40.7451H86.8204ZM102.69 40.7451L96.313 31.3992H104.046L110.46 40.7451H102.69ZM94.0773 31.6557L90.852 28.3205H98.1088C99.6237 28.3205 100.748 27.9907 101.481 27.331C102.238 26.6713 102.617 25.755 102.617 24.5822C102.617 23.3849 102.238 22.4564 101.481 21.7967C100.748 21.137 99.6237 20.8071 98.1088 20.8071H90.852L94.0773 17.4719V31.6557ZM113.951 40.7451V15.0896H121.207V40.7451H113.951ZM126.37 40.7451V15.0896H138.502C141.336 15.0896 143.828 15.615 145.978 16.6656C148.129 17.7163 149.802 19.1945 150.999 21.1004C152.221 23.0062 152.832 25.2785 152.832 27.9174C152.832 30.5318 152.221 32.8041 150.999 34.7344C149.802 36.6402 148.129 38.1185 145.978 39.1691C143.828 40.2198 141.336 40.7451 138.502 40.7451H126.37ZM133.627 34.9543H138.208C139.674 34.9543 140.945 34.6855 142.02 34.148C143.12 33.586 143.975 32.7797 144.586 31.7291C145.196 30.654 145.502 29.3834 145.502 27.9174C145.502 26.4269 145.196 25.1564 144.586 24.1057C143.975 23.0551 143.12 22.261 142.02 21.7234C140.945 21.1614 139.674 20.8804 138.208 20.8804H133.627V34.9543ZM163.32 25.022H175.232V30.4463H163.32V25.022ZM163.834 35.1376H177.248V40.7451H156.65V15.0896H176.771V20.6972H163.834V35.1376Z" fill="#1E1E1E"/>
<path d="M71.0638 66.8202C69.5756 66.8202 68.2004 66.5753 66.9383 66.0855C65.6761 65.5769 64.5835 64.8705 63.6605 63.9662C62.7374 63.062 62.0122 61.9977 61.4847 60.7732C60.9761 59.5488 60.7218 58.2113 60.7218 56.7608C60.7218 55.3103 60.9761 53.9728 61.4847 52.7483C62.0122 51.5238 62.7374 50.4595 63.6605 49.5553C64.6024 48.6511 65.7044 47.9541 66.9665 47.4643C68.2287 46.9557 69.6038 46.7014 71.092 46.7014C72.5237 46.7014 73.8706 46.9463 75.1327 47.436C76.3949 47.907 77.4592 48.6228 78.3258 49.5836L76.9977 50.9116C76.1877 50.0828 75.2929 49.4894 74.3133 49.1314C73.3337 48.7547 72.2788 48.5663 71.1485 48.5663C69.9618 48.5663 68.8597 48.7735 67.8425 49.188C66.8253 49.5836 65.9399 50.1581 65.1864 50.9116C64.4328 51.6463 63.8395 52.5128 63.4062 53.5112C62.9918 54.4908 62.7845 55.574 62.7845 56.7608C62.7845 57.9476 62.9918 59.0401 63.4062 60.0386C63.8395 61.0181 64.4328 61.8847 65.1864 62.6382C65.9399 63.3729 66.8253 63.9474 67.8425 64.3618C68.8597 64.7574 69.9618 64.9552 71.1485 64.9552C72.2788 64.9552 73.3337 64.7669 74.3133 64.3901C75.2929 64.0133 76.1877 63.4105 76.9977 62.5817L78.3258 63.9097C77.4592 64.8705 76.3949 65.5957 75.1327 66.0855C73.8706 66.5753 72.5143 66.8202 71.0638 66.8202ZM92.4025 66.6506L101.445 46.8709H103.507L112.55 66.6506H110.346L102.038 48.0859H102.886L94.5782 66.6506H92.4025ZM95.9628 61.3666L96.5845 59.6712H108.085L108.707 61.3666H95.9628ZM129.102 66.6506V46.8709H136.506C138.182 46.8709 139.623 47.1441 140.829 47.6904C142.034 48.2178 142.957 48.9902 143.598 50.0074C144.257 51.0058 144.587 52.2209 144.587 53.6525C144.587 55.0465 144.257 56.2521 143.598 57.2694C142.957 58.2678 142.034 59.0401 140.829 59.5864C139.623 60.1139 138.182 60.3776 136.506 60.3776H130.261L131.193 59.4169V66.6506H129.102ZM142.609 66.6506L137.523 59.4734H139.783L144.898 66.6506H142.609ZM131.193 59.5864L130.261 58.5975H136.449C138.427 58.5975 139.925 58.1642 140.942 57.2976C141.978 56.4311 142.496 55.2161 142.496 53.6525C142.496 52.0701 141.978 50.8457 140.942 49.9791C139.925 49.1126 138.427 48.6793 136.449 48.6793H130.261L131.193 47.6904V59.5864ZM164.668 55.7153H175.123V57.4954H164.668V55.7153ZM164.894 64.8422H176.79V66.6506H162.803V46.8709H176.366V48.6793H164.894V64.8422Z" fill="#1E1E1E"/>
</svg>
